<?xml version="1.0" standalone="no"?>
<!DOCTYPE svg PUBLIC "-//W3C//DTD SVG 1.1//EN" "http://www.w3.org/Graphics/SVG/1.1/DTD/svg11.dtd" >
<svg xmlns="http://www.w3.org/2000/svg" xmlns:svg="http://www.w3.org/2000/svg" xmlns:xlink="http://www.w3.org/1999/xlink" viewBox="0 0 1024 1024"><path d="M197.89 976.58L182.36 985.54L201.28 933.8L193.92 928.77L206.56 928.86L192.81 906.54L202.31 881.3L194.32 854.26L157.25 840.06L164.6 830.42L136.03 774.58L89.64 783.8L68.35 750.84L72.31 735.57L125.21 744.27L149.58 778.67L159.93 774.21L163.56 807.92L214.4 777.04L266.54 709.01L410.54 555.64L424.86 525.43L381.71 622.11L303.17 722.35L238.19 805.81L218.24 854.21L231.57 844.01L231.61 870.96L245.88 890.58L248.33 922.72L259.86 937.76L218.35 989.92ZM788.51 737.47V703.3L688.66 701.01V697.65H815.23L828.19 694.77L830.5 660.32L830.35 670.92H816.46L836.17 692.95L834.17 660.41L812.64 659.57L803.95 674.96V409.3H545.11V873.17L549.45 900.59L567.9 908.1L567.38 906.08L563.46 875.11L555.17 877.81L573.2 896.76L544.53 916.61L548.35 916.26H581.33H911.36L932.11 762.64H952.65L926.86 900.14L959.23 892.11L983.27 914.57L972.29 946.06L948.51 972.26H577.04L540.18 972.46L564.76 974.14L516.68 956.6L513.07 931.17L527.53 953.01L504.76 923.8L499.86 914.54L480.13 905.5L498.12 904.67L496.97 892.01V367.59L550 373.98H826.13L853.88 357.33L892.12 430.72L866.81 445.79V656.57L872.68 659.01L884.87 705.66L883.42 703.7L884.75 722.26L865.99 727.64L864.61 716.58L829.9 749.58L820.09 742.71L797.73 751.32ZM248.24 589.72L225.22 573.84L222.15 566.47L227.37 582.23L170.77 575.88L177.31 557.36L131.46 525.61L89.05 518.9L66.06 513.87L92.87 479.7L101.51 495.67L136.05 516.72L155.04 523.92L159.3 491.79L195.6 503.1L217.8 525.73L257.49 548.95L260.2 521.22L263.14 530.79L261.42 552.36L282.11 600.43ZM338.34 439.56L290.33 421.1L302.69 401.07L252.85 389.57L234.07 360.65L170.34 336.16L163.26 315.68L165.19 302.62L179.1 318.04L226.64 330.17L243.95 345.36L257.93 358.76L319.22 345.53L299.46 362.82L327.88 384.2L326.06 365.3L337.57 377.73L341.7 429.67ZM336.82 320.8V192.99H56.63V184.16H311.51V32.16L389.16 52.26L415.51 50.37L410.66 85.22V171.3H613.84V56.92L693.48 66.8L715.74 60.43L671.53 59.19V192.88H839.8L904.1 109.77L971.15 154.29V206.2H681.29V307.58L615.48 349.69V194.07H404.59V313.68Z" fill="black"></path></svg>