<?xml version="1.0" standalone="no"?>
<!DOCTYPE svg PUBLIC "-//W3C//DTD SVG 1.1//EN" "http://www.w3.org/Graphics/SVG/1.1/DTD/svg11.dtd" >
<svg xmlns="http://www.w3.org/2000/svg" xmlns:svg="http://www.w3.org/2000/svg" xmlns:xlink="http://www.w3.org/1999/xlink" viewBox="0 0 1024 1024"><path d="M214.0 981.0 194.0 967.0 189.0 942.0 193.0 926.0 194.0 910.0 192.0 893.0 187.0 875.0 177.0 856.0 164.0 836.0 146.0 815.0 125.0 794.0 99.0 771.0 69.0 748.0 74.0 740.0 109.0 755.0 141.0 771.0 169.0 789.0 177.0 796.0 207.0 768.0 279.0 692.0 412.0 539.0 420.0 544.0 380.0 620.0 314.0 720.0 250.0 806.0 221.0 840.0 230.0 852.0 242.0 876.0 250.0 901.0 254.0 928.0 252.0 956.0 238.0 976.0ZM798.0 745.0V713.0L691.0 697.0V681.0H805.0L810.0 679.0L813.0 678.0L814.0 677.0H816.0L817.0 676.0L818.0 671.0L819.0 666.0L820.0 659.0V414.0H551.0V883.0L552.0 888.0L553.0 891.0L554.0 893.0L555.0 894.0L556.0 895.0L557.0 896.0L561.0 897.0L566.0 898.0H573.0H907.0L938.0 764.0H949.0L939.0 898.0L957.0 911.0L970.0 931.0L957.0 950.0L938.0 963.0H573.0L559.0 962.0L545.0 960.0L532.0 955.0L520.0 949.0L509.0 940.0L500.0 929.0L493.0 917.0L489.0 904.0L487.0 890.0L486.0 877.0V361.0L551.0 393.0H820.0L852.0 366.0L911.0 414.0L884.0 436.0V659.0L883.0 673.0L881.0 686.0L877.0 699.0L870.0 711.0L861.0 722.0L850.0 731.0L838.0 738.0L825.0 742.0L812.0 744.0ZM244.0 602.0 221.0 593.0 216.0 586.0 208.0 578.0 187.0 561.0 173.0 552.0 140.0 534.0 99.0 515.0 76.0 507.0 78.0 497.0 103.0 500.0 127.0 503.0 149.0 505.0 169.0 509.0 206.0 519.0 223.0 525.0 239.0 531.0 253.0 538.0 266.0 547.0 275.0 569.0 267.0 592.0ZM326.0 431.0 302.0 423.0 287.0 406.0 264.0 387.0 236.0 367.0 183.0 334.0 162.0 324.0 165.0 315.0 188.0 320.0 210.0 324.0 231.0 329.0 269.0 340.0 303.0 353.0 318.0 359.0 332.0 367.0 345.0 375.0 355.0 397.0 348.0 420.0ZM327.0 331.0V195.0H54.0V174.0H327.0V43.0L392.0 54.0L408.0 65.0L392.0 75.0V174.0H618.0V43.0L683.0 54.0L699.0 65.0L683.0 75.0V174.0H838.0L892.0 120.0L956.0 174.0V195.0H683.0V298.0L618.0 331.0V195.0H392.0V298.0Z" fill="black"></path></svg>